<?xml version="1.0" standalone="no"?>
<!DOCTYPE svg PUBLIC "-//W3C//DTD SVG 20010904//EN"
 "http://www.w3.org/TR/2001/REC-SVG-20010904/DTD/svg10.dtd">
<svg version="1.0" xmlns="http://www.w3.org/2000/svg"
 width="512.000000pt" height="512.000000pt" viewBox="0 0 512.000000 512.000000"
 preserveAspectRatio="xMidYMid meet">

<g transform="translate(0.000000,512.000000) scale(0.100000,-0.100000)"
fill="#000000" stroke="none">
<path d="M2374 5109 c-994 -72 -1859 -719 -2208 -1653 -214 -570 -214 -1222 0
-1792 258 -691 807 -1240 1498 -1498 570 -214 1222 -214 1792 0 852 319 1478
1078 1624 1968 123 750 -81 1496 -568 2076 -444 529 -1079 849 -1787 900 -155
11 -189 11 -351 -1z m-763 -982 c217 -106 269 -380 105 -555 -68 -72 -148
-106 -251 -107 -71 0 -88 4 -147 33 -74 36 -134 96 -169 170 -34 69 -38 189
-10 263 22 59 80 133 132 170 91 65 238 76 340 26z m1924 -902 c108 -30 186
-74 256 -144 95 -96 141 -188 182 -366 19 -85 21 -126 24 -762 l4 -673 -300 0
-301 0 0 538 c0 300 -5 568 -10 607 -20 138 -68 222 -154 268 -35 19 -57 22
-146 22 -89 0 -113 -4 -157 -24 -99 -44 -159 -138 -183 -283 -6 -37 -10 -282
-10 -595 l0 -533 -300 0 -300 0 0 965 0 965 285 0 284 0 3 -136 3 -137 33 51
c69 108 209 203 354 242 62 17 96 19 223 16 98 -3 171 -10 210 -21z m-1767
-982 l2 -963 -305 0 -305 0 0 958 c0 527 3 962 7 965 4 4 140 6 302 5 l296 -3
3 -962z"/>
</g>
</svg>
