<?xml version="1.0" standalone="no"?>
<!DOCTYPE svg PUBLIC "-//W3C//DTD SVG 20010904//EN"
 "http://www.w3.org/TR/2001/REC-SVG-20010904/DTD/svg10.dtd">
<svg version="1.0" xmlns="http://www.w3.org/2000/svg"
 width="512.000000pt" height="512.000000pt" viewBox="0 0 512.000000 512.000000"
 preserveAspectRatio="xMidYMid meet">

<g transform="translate(0.000000,512.000000) scale(0.100000,-0.100000)"
fill="#000000" stroke="none">
<path d="M113 4415 l-43 -55 0 -1511 c0 -1111 3 -1522 12 -1556 7 -30 24 -59
50 -85 l38 -38 1877 0 1878 0 -137 -137 c-75 -76 -142 -151 -148 -168 -31 -83
32 -187 124 -200 96 -15 105 -8 395 279 145 143 276 281 292 305 39 61 39 114
0 167 -50 67 -564 572 -594 584 -91 33 -193 -27 -213 -128 -12 -61 12 -100
154 -245 l136 -137 -1648 0 c-967 0 -1646 4 -1644 9 4 12 1259 1151 1268 1151
3 0 132 -106 285 -236 153 -129 291 -242 306 -250 38 -19 108 -18 145 4 17 9
496 417 1063 907 568 490 1037 892 1042 893 5 2 9 -411 9 -1074 l0 -1077 25
-42 c29 -50 75 -75 138 -75 58 0 105 32 135 90 l22 45 -2 1245 -3 1245 -27 55
c-16 32 -39 62 -57 73 -27 16 -166 17 -2433 17 l-2403 0 -42 -55z m4353 -274
c-11 -17 -1897 -1626 -1906 -1626 -10 0 -1895 1609 -1906 1626 -3 5 837 9
1906 9 1081 0 1909 -4 1906 -9z m-3447 -727 c350 -301 637 -550 639 -553 2 -6
-1210 -1113 -1264 -1154 l-24 -19 0 1136 c0 625 3 1136 6 1136 3 0 293 -246
643 -546z"/>
</g>
</svg>
