<?xml version="1.0" standalone="no"?>
<!DOCTYPE svg PUBLIC "-//W3C//DTD SVG 20010904//EN"
 "http://www.w3.org/TR/2001/REC-SVG-20010904/DTD/svg10.dtd">
<svg version="1.0" xmlns="http://www.w3.org/2000/svg"
 width="225.000000pt" height="225.000000pt" viewBox="0 0 225.000000 225.000000"
 preserveAspectRatio="xMidYMid meet">

<g transform="translate(0.000000,225.000000) scale(0.100000,-0.100000)"
fill="#000000" stroke="none">
<path d="M351 2232 c-19 -10 -43 -34 -53 -53 -17 -32 -18 -85 -18 -1052 0
-1129 -4 -1067 64 -1108 30 -18 65 -19 780 -19 733 0 749 0 781 20 68 42 65
-5 65 955 0 732 -2 870 -14 893 -17 32 -342 355 -373 371 -15 8 -200 11 -610
11 -551 0 -590 -1 -622 -18z m1149 -246 c0 -145 3 -177 16 -190 13 -13 45 -16
190 -16 l174 0 0 -832 c0 -589 -4 -835 -11 -845 -9 -11 -149 -13 -749 -13
-664 0 -738 2 -744 16 -3 9 -6 469 -6 1023 0 770 3 1010 12 1019 9 9 148 12
565 12 l553 0 0 -174z m223 -114 c-59 -1 -113 0 -120 2 -10 4 -13 35 -13 123
l0 118 120 -120 120 -120 -107 -3z"/>
<path d="M1014 1399 c-51 -12 -118 -68 -146 -123 -29 -54 -31 -155 -4 -206 43
-82 118 -132 198 -132 91 0 191 74 162 119 -17 28 -50 27 -87 -1 -25 -20 -46
-26 -81 -26 -41 0 -53 5 -81 33 -59 59 -59 155 0 214 29 29 40 33 83 33 39 0
57 -6 80 -25 17 -14 37 -25 46 -25 8 0 23 11 32 25 15 23 15 27 1 49 -17 26
-85 61 -132 69 -16 3 -48 1 -71 -4z"/>
<path d="M1302 1378 c-7 -7 -12 -19 -12 -28 0 -34 155 -393 176 -407 36 -24
58 9 139 214 64 160 75 195 65 212 -11 21 -45 28 -66 13 -6 -4 -34 -67 -64
-141 -61 -154 -51 -155 -120 20 -23 57 -46 110 -52 117 -13 15 -50 16 -66 0z"/>
<path d="M592 738 c-15 -15 -15 -51 0 -66 9 -9 141 -12 534 -12 462 0 524 2
538 16 20 19 20 24 0 52 l-15 22 -523 0 c-393 0 -525 -3 -534 -12z"/>
<path d="M587 453 c-15 -14 -7 -63 12 -73 26 -13 1025 -14 1050 0 25 13 33 37
21 61 -10 18 -28 19 -544 19 -293 0 -536 -3 -539 -7z"/>
</g>
</svg>
